<svg width="15" height="14" viewBox="0 0 15 14" fill="none" xmlns="http://www.w3.org/2000/svg">
<path d="M12.6756 4.23632L12.6755 4.23642L6.09981 10.8123C6.09978 10.8123 6.09975 10.8123 6.09972 10.8124C5.9121 10.9998 5.60821 10.9998 5.42059 10.8124C5.42055 10.8123 5.42052 10.8123 5.42049 10.8123L2.29027 7.68186L2.29017 7.68176C2.10266 7.49435 2.10266 7.1904 2.29017 7.00298L2.29035 7.00281C2.47776 6.8153 2.78171 6.8153 2.96912 7.00281L2.96921 7.00289L5.4065 9.44018L5.76006 9.79374L6.11361 9.44018L11.9962 3.55735C11.9963 3.55733 11.9963 3.5573 11.9963 3.55727C12.184 3.36975 12.4881 3.3699 12.6755 3.55726L13.029 3.20371L12.6755 3.55726C12.8632 3.74494 12.863 4.04896 12.6756 4.23632Z" fill="white" stroke="#4F4F4F"/>
</svg>
