<svg width="375" height="560" viewBox="0 0 375 560" fill="none" xmlns="http://www.w3.org/2000/svg">
<mask id="mask0" mask-type="alpha" maskUnits="userSpaceOnUse" x="0" y="0" width="375" height="560">
<rect width="375" height="560" fill="#C4C4C4"/>
</mask>
<g mask="url(#mask0)">
<path d="M320.829 100.22C386.764 107.072 408.565 153.245 411.224 175.476L426.496 517.924L-32.4762 556.801L-51.4319 131.752C-9.31432 160.14 87.5168 188.04 162.09 163.759C220.069 144.881 238.41 91.6549 320.829 100.22Z" fill="#FFCC00" fill-opacity="0.2"/>
<path d="M330.562 136.784C396.091 149.205 415.803 197.165 417.468 219.593L417.468 562.902L-42.5323 562.902L-42.5323 136.784C-1.74325 168.7 93.6971 204.756 169.238 186.814C227.968 172.865 248.651 121.258 330.562 136.784Z" fill="#FFCC00" fill-opacity="0.4"/>
<path d="M343.013 168.76C407.678 185.095 424.474 234.152 424.789 256.639L404.17 599.328L-55 571.701L-29.4077 146.353C9.39087 180.66 102.493 222.384 178.975 209.011C238.437 198.614 262.183 148.342 343.013 168.76Z" fill="#FFCC00"/>
</g>
</svg>
