<svg width="1440" height="538" viewBox="0 0 1440 538" fill="none" xmlns="http://www.w3.org/2000/svg">
<path class='top' d="M1108.9 0.99883C1290.05 0.998836 1439.99 79.4343 1439.99 79.4343L1439.99 537.999L-0.0129395 537.999L-0.012949 78.2732C119.987 111.53 422.79 138.872 659.264 118.377C843.115 102.442 857.336 0.998822 1108.9 0.99883Z" fill="#FFCB40" fill-opacity="0.2"/>
<path class='bottom' d="M1116.13 46.3711C1305.53 46.3711 1439.99 113.729 1439.99 113.729L1439.99 537.855L-0.0130615 537.855L-0.0129501 82.371C127.674 116.486 425.681 161.812 662.156 142.634C846.007 127.723 883.36 46.371 1116.13 46.3711Z" fill="#FFCB40" fill-opacity="0.4"/>
<path class='middle' d="M1133.48 89.279C1295.65 89.279 1439.99 148.513 1439.99 148.513L1439.99 537.855L-0.0130615 537.855L-0.0129512 87.129C127.674 118.753 426.444 182.979 662.919 165.201C846.77 151.379 887.698 89.279 1133.48 89.279Z" fill="#FFCB40"/>
</svg>
