<svg width="500" height="500" viewBox="0 0 500 500" fill="none" xmlns="http://www.w3.org/2000/svg">
<path d="M385.04 5.03975e-05C447.94 5.62178e-05 500 28.2259 500 28.2259L500 500L6.10352e-05 500L6.95822e-05 27.0314C41.6668 61.2461 146.807 89.3762 228.916 68.2903C292.753 51.8968 297.691 4.23148e-05 385.04 5.03975e-05Z" fill="#FFCB40" fill-opacity="0.2"/>
<path d="M387.55 31.2473C453.313 31.2473 500 63.5081 500 63.5081L500 499.852L3.05176e-05 499.852L6.92217e-05 31.2473C44.3359 66.3452 147.811 112.977 229.92 93.246C293.757 77.9057 306.727 31.2473 387.55 31.2473Z" fill="#FFCB40" fill-opacity="0.4"/>
<path d="M393.574 60.988C449.884 60.988 500 99.2944 500 99.2944L500 499.852L3.05176e-05 499.852L6.88174e-05 36.1422C44.3359 68.6775 148.075 134.754 230.185 116.463C294.022 102.243 308.233 60.988 393.574 60.988Z" fill="#FFCB40"/>
</svg>
