<svg width="250" height="70" viewBox="0 0 250 70" fill="none" xmlns="http://www.w3.org/2000/svg">
<path fill-rule="evenodd" clip-rule="evenodd" d="M161.341 2.6998C162.101 3.85233 162.577 5.20283 162.577 6.91137C162.577 7.89234 162.301 8.69716 161.841 9.39497C161.421 10.0317 160.874 10.529 160.494 10.8742C160.48 10.8872 160.466 10.8999 160.452 10.9125C160.033 11.2937 159.806 11.5107 159.642 11.7596C159.503 11.9712 159.379 12.2578 159.379 12.7319C159.379 13.2061 159.503 13.4926 159.642 13.7043C159.806 13.9531 160.033 14.1701 160.452 14.5514C160.466 14.5639 160.48 14.5767 160.494 14.5896C160.874 14.9348 161.421 15.4322 161.841 16.0689C162.301 16.7667 162.577 17.5715 162.577 18.5525C162.577 20.261 162.101 21.6115 161.341 22.764C160.622 23.8544 159.677 24.7145 158.906 25.416C158.874 25.4445 158.828 25.4493 158.792 25.428L157.521 24.6883C156.325 23.9916 156.254 22.4086 157.016 21.2528C157.456 20.5864 157.78 19.7542 157.78 18.5525C157.78 18.0783 157.656 17.7918 157.516 17.5801C157.352 17.3313 157.125 17.1143 156.706 16.733C156.692 16.7205 156.678 16.7077 156.664 16.6948C156.284 16.3496 155.737 15.8522 155.317 15.2155C154.857 14.5177 154.581 13.7129 154.581 12.7319C154.581 11.751 154.857 10.9461 155.317 10.2483C155.737 9.61163 156.284 9.11428 156.664 8.76908C156.678 8.75611 156.692 8.74336 156.706 8.73083C157.125 8.34955 157.352 8.13258 157.516 7.88373C157.656 7.67207 157.78 7.38554 157.78 6.91137C157.78 5.70963 157.456 4.87743 157.016 4.21104C156.254 3.05524 156.325 1.47229 157.521 0.775566L158.792 0.0358116C158.828 0.0144966 158.874 0.0193863 158.906 0.0478869C159.677 0.749302 160.622 1.60941 161.341 2.6998Z" fill="#333333"/>
<path fill-rule="evenodd" clip-rule="evenodd" d="M172.002 2.6998C172.762 3.85233 173.238 5.20283 173.238 6.91137C173.238 7.89234 172.962 8.69716 172.502 9.39497C172.082 10.0317 171.535 10.529 171.155 10.8742C171.141 10.8872 171.127 10.8999 171.113 10.9125C170.694 11.2937 170.467 11.5107 170.303 11.7596C170.163 11.9712 170.04 12.2578 170.04 12.7319C170.04 13.2061 170.163 13.4926 170.303 13.7043C170.467 13.9531 170.694 14.1701 171.113 14.5514C171.127 14.5639 171.141 14.5767 171.155 14.5896C171.535 14.9348 172.082 15.4322 172.502 16.0689C172.962 16.7667 173.238 17.5715 173.238 18.5525C173.238 20.261 172.762 21.6115 172.002 22.764C171.283 23.8544 170.338 24.7145 169.567 25.416C169.535 25.4445 169.489 25.4493 169.452 25.428L168.182 24.6883C166.986 23.9916 166.915 22.4086 167.677 21.2528C168.117 20.5864 168.44 19.7542 168.44 18.5525C168.44 18.0783 168.316 17.7918 168.177 17.5801C168.013 17.3313 167.786 17.1143 167.367 16.733C167.353 16.7205 167.339 16.7077 167.325 16.6948C166.945 16.3496 166.398 15.8522 165.978 15.2155C165.518 14.5177 165.242 13.7129 165.242 12.7319C165.242 11.751 165.518 10.9461 165.978 10.2483C166.398 9.61163 166.945 9.11428 167.325 8.76908C167.339 8.75611 167.353 8.74336 167.367 8.73083C167.786 8.34955 168.013 8.13258 168.177 7.88373C168.316 7.67207 168.44 7.38554 168.44 6.91137C168.44 5.70963 168.117 4.87743 167.677 4.21104C166.915 3.05524 166.986 1.47229 168.182 0.775567L169.452 0.0358116C169.489 0.0144965 169.535 0.0193863 169.567 0.0478869C170.338 0.749302 171.283 1.60941 172.002 2.6998Z" fill="#333333"/>
<path fill-rule="evenodd" clip-rule="evenodd" d="M150.681 2.6998C151.44 3.85233 151.916 5.20283 151.916 6.91137C151.916 7.89234 151.64 8.69716 151.18 9.39497C150.76 10.0317 150.213 10.529 149.834 10.8742C149.819 10.8872 149.805 10.8999 149.791 10.9125C149.372 11.2937 149.146 11.5107 148.981 11.7596C148.842 11.9712 148.718 12.2578 148.718 12.7319C148.718 13.2061 148.842 13.4926 148.981 13.7043C149.146 13.9531 149.372 14.1701 149.791 14.5514C149.805 14.5639 149.819 14.5767 149.834 14.5896C150.213 14.9348 150.76 15.4322 151.18 16.0689C151.64 16.7667 151.916 17.5715 151.916 18.5525C151.916 20.261 151.44 21.6115 150.681 22.764C149.962 23.8544 149.016 24.7145 148.245 25.416C148.214 25.4445 148.167 25.4493 148.131 25.428L146.861 24.6883C145.664 23.9916 145.594 22.4086 146.356 21.2528C146.795 20.5864 147.119 19.7542 147.119 18.5525C147.119 18.0783 146.995 17.7918 146.855 17.5801C146.691 17.3313 146.464 17.1143 146.045 16.733C146.032 16.7205 146.018 16.7077 146.003 16.6948C145.624 16.3496 145.076 15.8522 144.657 15.2155C144.196 14.5177 143.921 13.7129 143.921 12.7319C143.921 11.751 144.196 10.9461 144.657 10.2483C145.076 9.61163 145.624 9.11428 146.003 8.76908C146.018 8.75611 146.032 8.74336 146.045 8.73083C146.464 8.34955 146.691 8.13258 146.855 7.88373C146.995 7.67207 147.119 7.38554 147.119 6.91137C147.119 5.70963 146.795 4.87743 146.356 4.21104C145.594 3.05524 145.664 1.47229 146.861 0.775564L148.131 0.0358117C148.167 0.0144966 148.214 0.0193863 148.245 0.0478869C149.016 0.749302 149.962 1.60941 150.681 2.6998Z" fill="#333333"/>
<path d="M32.1358 34.7792C37.7736 35.3971 42.2839 36.4012 45.6666 37.7915C49.1006 39.1818 51.5864 41.0098 53.124 43.2754C54.6616 45.5411 55.4304 48.3732 55.4304 51.7717C55.4304 55.4791 54.2259 58.7232 51.817 61.5037C49.4594 64.2328 46.1791 66.344 41.9764 67.8373C37.7736 69.2791 32.9814 70 27.5999 70C21.6032 70 16.5292 69.2534 12.3777 67.7601C8.22614 66.2668 5.12532 64.2843 3.07519 61.8127C1.02506 59.2896 0 56.5347 0 53.5482C0 53.0332 0.15376 52.6213 0.461279 52.3123C0.820051 52.0034 1.2557 51.8489 1.76824 51.8489H17.5286C18.6049 51.8489 19.4762 52.1836 20.1425 52.853C21.0138 53.6769 21.9876 54.2433 23.0639 54.5523C24.1403 54.8097 25.6522 54.9385 27.5999 54.9385C32.4689 54.9385 34.9034 54.1918 34.9034 52.6985C34.9034 52.0806 34.5703 51.5657 33.904 51.1538C33.289 50.6903 32.1614 50.3041 30.5213 49.9952C28.9324 49.6347 26.5748 49.2743 23.4483 48.9138C16.4267 48.09 11.0451 46.3392 7.30358 43.6616C3.5621 40.9325 1.69136 37.0963 1.69136 32.153C1.69136 28.6516 2.74205 25.562 4.84343 22.8844C6.94481 20.2068 9.9175 18.1214 13.7615 16.6281C17.6567 15.1348 22.167 14.3882 27.2923 14.3882C32.6227 14.3882 37.2867 15.2378 41.2845 16.937C45.2822 18.5848 48.3318 20.6445 50.4332 23.1161C52.5346 25.5878 53.5852 28.0079 53.5852 30.3766C53.5852 30.8915 53.4059 31.3034 53.0471 31.6124C52.7396 31.9213 52.3039 32.0758 51.7401 32.0758H35.211C34.3397 32.0758 33.5452 31.7669 32.8277 31.1489C32.2639 30.634 31.5976 30.2221 30.8288 29.9131C30.06 29.6042 28.8812 29.4497 27.2923 29.4497C23.8584 29.4497 22.1414 30.1706 22.1414 31.6124C22.1414 32.3848 22.8077 33.0027 24.1403 33.4661C25.4728 33.878 28.138 34.3157 32.1358 34.7792Z" fill="#333333"/>
<path d="M121.824 46.9056C121.824 54.784 119.211 60.6026 113.983 64.3616C108.806 68.1205 101.887 70 93.2252 70C84.5634 70 77.6186 68.1205 72.3908 64.3616C67.2142 60.6026 64.6259 54.7325 64.6259 46.7512V37.637C64.6259 32.3848 65.856 28.0337 68.3161 24.5837C70.8275 21.0822 74.2359 18.5075 78.5412 16.8598C82.8464 15.212 87.7411 14.3882 93.2252 14.3882C98.7093 14.3882 103.578 15.212 107.832 16.8598C112.138 18.5075 115.546 21.0564 118.057 24.5064C120.569 27.9564 121.824 32.2818 121.824 37.4825V46.9056ZM85.3835 48.3732C85.3835 50.4844 86.0754 52.1064 87.4592 53.2392C88.8943 54.372 90.8163 54.9385 93.2252 54.9385C95.6341 54.9385 97.5305 54.372 98.9143 53.2392C100.349 52.0549 101.067 50.4071 101.067 48.2959V36.0922C101.067 33.981 100.349 32.359 98.9143 31.2262C97.5305 30.0419 95.6341 29.4497 93.2252 29.4497C90.8163 29.4497 88.8943 30.0161 87.4592 31.1489C86.0754 32.2818 85.3835 33.9038 85.3835 36.015V48.3732Z" fill="#333333"/>
<path d="M158.543 70C149.932 70 143.09 68.1205 138.016 64.3616C132.993 60.6026 130.482 54.7325 130.482 46.7512V34.2385C130.482 33.6721 130.687 33.1829 131.097 32.771C131.507 32.359 131.994 32.153 132.558 32.153H148.626C149.189 32.153 149.676 32.359 150.086 32.771C150.496 33.1829 150.701 33.6721 150.701 34.2385V47.987C150.701 50.0982 151.393 51.7202 152.777 52.853C154.212 53.9858 156.134 54.5523 158.543 54.5523C160.952 54.5523 162.848 53.9858 164.232 52.853C165.667 51.7202 166.385 50.0982 166.385 47.987V34.2385C166.385 33.6721 166.59 33.1829 167 32.771C167.41 32.359 167.897 32.153 168.461 32.153H184.528C185.092 32.153 185.579 32.359 185.989 32.771C186.399 33.1829 186.604 33.6721 186.604 34.2385V46.7512C186.604 54.7325 184.067 60.6026 178.993 64.3616C173.97 68.1205 167.154 70 158.543 70Z" fill="#333333"/>
<path d="M226.321 15.1605C231.139 15.1605 235.342 15.9844 238.929 17.6322C242.517 19.2799 245.259 21.5199 247.155 24.3519C249.052 27.184 250 30.3508 250 33.8523C250 39.6195 248.206 44.1508 244.618 47.4463C241.031 50.6903 234.932 52.3123 226.321 52.3123H216.173V67.1422C216.173 67.7086 215.968 68.1978 215.558 68.6097C215.148 69.0216 214.661 69.2276 214.097 69.2276H197.568C197.004 69.2276 196.517 69.0216 196.107 68.6097C195.697 68.1978 195.492 67.7086 195.492 67.1422V17.246C195.492 16.6796 195.697 16.1904 196.107 15.7784C196.517 15.3665 197.004 15.1605 197.568 15.1605H226.321ZM226.013 38.0232C227.244 38.0232 228.217 37.6627 228.935 36.9418C229.652 36.1695 230.011 35.1654 230.011 33.9295C230.011 32.6422 229.652 31.5866 228.935 30.7628C228.217 29.9389 227.244 29.5269 226.013 29.5269H216.25V38.0232H226.013Z" fill="#333333"/>
</svg>
