<svg width="25" height="25" viewBox="0 0 25 25" fill="none" xmlns="http://www.w3.org/2000/svg">
<mask id="path-1-inside-1" fill="white">
<path fill-rule="evenodd" clip-rule="evenodd" d="M12.5 23C15.8015 23 18.7472 21.4762 20.672 19.0936C19.4007 17.053 17.5509 15.4749 15.7069 14.6163L15.8488 14.3115C14.89 14.9502 13.7384 15.3224 12.5 15.3224C11.405 15.3224 10.3781 15.0315 9.49214 14.5227L9.53703 14.6241C7.54555 15.506 5.79745 17.1649 4.55276 19.3626C6.47815 21.5903 9.32445 23 12.5 23ZM7.90157 13.2033C6.08058 14.1991 4.51183 15.713 3.30297 17.57C2.47261 16.067 2 14.3387 2 12.5C2 6.70101 6.70101 2 12.5 2C18.299 2 23 6.70101 23 12.5C23 14.2176 22.5876 15.8389 21.8564 17.2702C20.5684 15.4783 18.9016 14.0465 17.1724 13.1151C18.0321 12.0705 18.5484 10.7326 18.5484 9.27406C18.5484 5.93363 15.8404 3.22567 12.5 3.22567C9.15955 3.22567 6.45159 5.93363 6.45159 9.27406C6.45159 10.7739 6.99754 12.1463 7.90157 13.2033ZM12.5 25C16.8537 25 20.6876 22.7742 22.9257 19.3984L23.0787 19.3249C23.0638 19.294 23.0489 19.2633 23.0338 19.2325C24.2784 17.2893 25 14.9789 25 12.5C25 5.59644 19.4036 0 12.5 0C5.59644 0 0 5.59644 0 12.5C0 19.4036 5.59644 25 12.5 25ZM16.5484 9.27406C16.5484 11.5099 14.7358 13.3224 12.5 13.3224C10.2641 13.3224 8.45159 11.5099 8.45159 9.27406C8.45159 7.0382 10.2641 5.22567 12.5 5.22567C14.7358 5.22567 16.5484 7.0382 16.5484 9.27406Z"/>
</mask>
<path fill-rule="evenodd" clip-rule="evenodd" d="M12.5 23C15.8015 23 18.7472 21.4762 20.672 19.0936C19.4007 17.053 17.5509 15.4749 15.7069 14.6163L15.8488 14.3115C14.89 14.9502 13.7384 15.3224 12.5 15.3224C11.405 15.3224 10.3781 15.0315 9.49214 14.5227L9.53703 14.6241C7.54555 15.506 5.79745 17.1649 4.55276 19.3626C6.47815 21.5903 9.32445 23 12.5 23ZM7.90157 13.2033C6.08058 14.1991 4.51183 15.713 3.30297 17.57C2.47261 16.067 2 14.3387 2 12.5C2 6.70101 6.70101 2 12.5 2C18.299 2 23 6.70101 23 12.5C23 14.2176 22.5876 15.8389 21.8564 17.2702C20.5684 15.4783 18.9016 14.0465 17.1724 13.1151C18.0321 12.0705 18.5484 10.7326 18.5484 9.27406C18.5484 5.93363 15.8404 3.22567 12.5 3.22567C9.15955 3.22567 6.45159 5.93363 6.45159 9.27406C6.45159 10.7739 6.99754 12.1463 7.90157 13.2033ZM12.5 25C16.8537 25 20.6876 22.7742 22.9257 19.3984L23.0787 19.3249C23.0638 19.294 23.0489 19.2633 23.0338 19.2325C24.2784 17.2893 25 14.9789 25 12.5C25 5.59644 19.4036 0 12.5 0C5.59644 0 0 5.59644 0 12.5C0 19.4036 5.59644 25 12.5 25ZM16.5484 9.27406C16.5484 11.5099 14.7358 13.3224 12.5 13.3224C10.2641 13.3224 8.45159 11.5099 8.45159 9.27406C8.45159 7.0382 10.2641 5.22567 12.5 5.22567C14.7358 5.22567 16.5484 7.0382 16.5484 9.27406Z" fill="#333333"/>
<path d="M20.672 19.0936L21.4499 19.7221L21.8969 19.1687L21.5208 18.5649L20.672 19.0936ZM15.7069 14.6163L14.8003 14.1942L14.3783 15.1008L15.2848 15.5228L15.7069 14.6163ZM15.8488 14.3115L16.7553 14.7336L18.2586 11.5048L15.2944 13.4793L15.8488 14.3115ZM9.49214 14.5227L9.99016 13.6555L7.34064 12.1339L8.57778 14.9276L9.49214 14.5227ZM9.53703 14.6241L9.94194 15.5384L10.8563 15.1335L10.4514 14.2192L9.53703 14.6241ZM4.55276 19.3626L3.68262 18.8698L3.33522 19.4831L3.79617 20.0165L4.55276 19.3626ZM7.90157 13.2033L8.38136 14.0807L9.46229 13.4896L8.66152 12.5533L7.90157 13.2033ZM3.30297 17.57L2.42766 18.0536L3.23274 19.5109L4.14104 18.1156L3.30297 17.57ZM21.8564 17.2702L21.0444 17.8539L22.0012 19.1849L22.7469 17.7251L21.8564 17.2702ZM17.1724 13.1151L16.4003 12.4796L15.6274 13.4187L16.6982 13.9955L17.1724 13.1151ZM22.9257 19.3984L22.4925 18.4971L22.2444 18.6164L22.0923 18.8458L22.9257 19.3984ZM23.0787 19.3249L23.5119 20.2262L24.4132 19.793L23.9799 18.8917L23.0787 19.3249ZM23.0338 19.2325L22.1917 18.6932L21.8881 19.1673L22.1359 19.6727L23.0338 19.2325ZM19.8941 18.4652C18.151 20.6229 15.4867 22 12.5 22V24C16.1164 24 19.3433 22.3296 21.4499 19.7221L19.8941 18.4652ZM15.2848 15.5228C16.9508 16.2985 18.6532 17.7443 19.8232 19.6224L21.5208 18.5649C20.1482 16.3617 18.1511 14.6512 16.129 13.7097L15.2848 15.5228ZM14.9422 13.8895L14.8003 14.1942L16.6135 15.0384L16.7553 14.7336L14.9422 13.8895ZM12.5 16.3224C13.9418 16.3224 15.2852 15.8885 16.4032 15.1438L15.2944 13.4793C14.4947 14.012 13.5351 14.3224 12.5 14.3224V16.3224ZM8.99412 15.3899C10.0276 15.9834 11.2257 16.3224 12.5 16.3224V14.3224C11.5844 14.3224 10.7286 14.0796 9.99016 13.6555L8.99412 15.3899ZM10.4514 14.2192L10.4065 14.1178L8.57778 14.9276L8.62268 15.029L10.4514 14.2192ZM5.42289 19.8554C6.57878 17.8145 8.17612 16.3204 9.94194 15.5384L9.13212 13.7097C6.91498 14.6916 5.01612 16.5153 3.68262 18.8698L5.42289 19.8554ZM12.5 22C9.62709 22 7.05287 20.726 5.30934 18.7087L3.79617 20.0165C5.90343 22.4546 9.02181 24 12.5 24V22ZM7.42177 12.3259C5.43876 13.4103 3.75272 15.0462 2.4649 17.0245L4.14104 18.1156C5.27095 16.3799 6.7224 14.9879 8.38136 14.0807L7.42177 12.3259ZM4.17828 17.0865C3.42762 15.7277 3 14.1653 3 12.5H1C1 14.5121 1.51759 16.4063 2.42766 18.0536L4.17828 17.0865ZM3 12.5C3 7.25329 7.25329 3 12.5 3V1C6.14873 1 1 6.14873 1 12.5H3ZM12.5 3C17.7467 3 22 7.25329 22 12.5H24C24 6.14873 18.8513 1 12.5 1V3ZM22 12.5C22 14.0558 21.6268 15.5215 20.9659 16.8153L22.7469 17.7251C23.5484 16.1562 24 14.3794 24 12.5H22ZM22.6684 16.6865C21.2923 14.7721 19.5103 13.2385 17.6466 12.2347L16.6982 13.9955C18.2929 14.8544 19.8445 16.1845 21.0444 17.8539L22.6684 16.6865ZM17.9445 13.7505C18.9461 12.5335 19.5484 10.9728 19.5484 9.27406H17.5484C17.5484 10.4923 17.1181 11.6074 16.4003 12.4796L17.9445 13.7505ZM19.5484 9.27406C19.5484 5.38134 16.3927 2.22567 12.5 2.22567V4.22567C15.2881 4.22567 17.5484 6.48591 17.5484 9.27406H19.5484ZM12.5 2.22567C8.60726 2.22567 5.45159 5.38134 5.45159 9.27406H7.45159C7.45159 6.48591 9.71183 4.22567 12.5 4.22567V2.22567ZM5.45159 9.27406C5.45159 11.0211 6.08853 12.622 7.14161 13.8533L8.66152 12.5533C7.90656 11.6706 7.45159 10.5267 7.45159 9.27406H5.45159ZM22.0923 18.8458C20.0315 21.9541 16.5045 24 12.5 24V26C17.203 26 21.3437 23.5943 23.7592 19.951L22.0923 18.8458ZM22.6454 18.4236L22.4925 18.4971L23.359 20.2997L23.5119 20.2262L22.6454 18.4236ZM22.1359 19.6727C22.1499 19.7012 22.1637 19.7296 22.1774 19.7581L23.9799 18.8917C23.964 18.8584 23.9479 18.8253 23.9317 18.7924L22.1359 19.6727ZM24 12.5C24 14.7821 23.3363 16.9061 22.1917 18.6932L23.8759 19.7719C25.2205 17.6725 26 15.1757 26 12.5H24ZM12.5 1C18.8513 1 24 6.14873 24 12.5H26C26 5.04416 19.9558 -1 12.5 -1V1ZM1 12.5C1 6.14873 6.14873 1 12.5 1V-1C5.04416 -1 -1 5.04416 -1 12.5H1ZM12.5 24C6.14873 24 1 18.8513 1 12.5H-1C-1 19.9558 5.04416 26 12.5 26V24ZM12.5 14.3224C15.2881 14.3224 17.5484 12.0622 17.5484 9.27406H15.5484C15.5484 10.9576 14.1836 12.3224 12.5 12.3224V14.3224ZM7.45159 9.27406C7.45159 12.0622 9.71183 14.3224 12.5 14.3224V12.3224C10.8164 12.3224 9.45159 10.9576 9.45159 9.27406H7.45159ZM12.5 4.22567C9.71183 4.22567 7.45159 6.48591 7.45159 9.27406H9.45159C9.45159 7.59048 10.8164 6.22567 12.5 6.22567V4.22567ZM17.5484 9.27406C17.5484 6.48591 15.2881 4.22567 12.5 4.22567V6.22567C14.1836 6.22567 15.5484 7.59048 15.5484 9.27406H17.5484Z" fill="#333333" mask="url(#path-1-inside-1)"/>
</svg>
